<svg xmlns="http://www.w3.org/2000/svg" xmlns:xlink="http://www.w3.org/1999/xlink" x="0px" y="0px" viewBox="-320 194 382 382"><path class="st0" d="M27.4,194h-312.9c-19.1,0-34.6,15.5-34.6,34.6v312.9c0,19.1,15.5,34.6,34.6,34.6H27.4 c19.1,0,34.6-15.5,34.6-34.6V228.6C62,209.5,46.5,194,27.4,194z M-201.8,523.8c0,5.6-4.5,10.1-10.1,10.1h-42.8 c-5.6,0-10.1-4.5-10.1-10.1V344.4c0-5.6,4.5-10.1,10.1-10.1h42.8c5.6,0,10.1,4.5,10.1,10.1V523.8z M-233.3,317.4 c-22.5,0-40.7-18.2-40.7-40.7c0-22.5,18.2-40.7,40.7-40.7s40.7,18.2,40.7,40.7C-192.6,299.2-210.8,317.4-233.3,317.4z M21.9,524.7 c0,5.1-4.1,9.2-9.2,9.2h-45.9c-5.1,0-9.2-4.1-9.2-9.2v-84.2c0-12.6,3.7-55-32.8-55c-28.3,0-34.1,29.1-35.2,42.1v97.1 c0,5.1-4.1,9.2-9.2,9.2h-44.4c-5.1,0-9.2-4.1-9.2-9.2V343.6c0-5.1,4.1-9.2,9.2-9.2h44.4c5.1,0,9.2,4.1,9.2,9.2v15.7 c10.5-15.8,26.1-27.9,59.3-27.9c73.6,0,73.1,68.7,73.1,106.5L21.9,524.7L21.9,524.7z"/></svg>