<svg xmlns="http://www.w3.org/2000/svg" x="0px" y="0px" viewBox="0 0 513 513"><g><g><path d="M513,253c0,2.7,0,5.3,0,8c-0.4,2.1-0.8,4.2-1.1,6.3c-1.5,13.4-1.9,26.9-4.6,40C495,367,465.3,416.5,418,455 c-39.3,32.1-84.3,50.7-134.8,55.8c-7.4,0.7-14.8,1.4-22.2,2.2c-2.7,0-5.3,0-8,0c-2.3-0.4-4.5-0.8-6.8-1.1 c-13.5-1.6-27.2-2.2-40.5-4.9c-57.4-11.8-105.3-40.2-143.2-84.8c-33.9-39.8-53.7-85.9-59.2-138C2.4,276.5,1.7,268.7,1,261 c0-2.7,0-5.3,0-8c0.4-2.4,0.8-4.9,1.1-7.3c1.6-13.3,2.2-26.9,4.9-40c11.8-57.2,40-105,84.4-142.9c39.9-34.1,86.1-54,138.4-59.5 c7.7-0.8,15.5-1.5,23.2-2.2c2.7,0,5.3,0,8,0c1.6,0.3,3.2,0.8,4.8,1c13.9,1.5,27.9,1.9,41.5,4.7c60.9,12.6,111.1,43.2,149.9,92 c30.7,38.5,48.6,82.5,53.6,131.6C511.6,237.8,512.3,245.4,513,253z M273.1,216.6c0-7.3-0.2-13.2,0.1-19.1c0.2-4.3-1.3-5.9-5.7-5.8 c-16,0.2-32,0.2-48,0c-4.1,0-5.6,1.2-5.6,5.4c0.1,61,0.1,122,0,182.9c0,4.4,1.5,5.6,5.8,5.5c16.5-0.2,33-0.3,49.5,0 c5.3,0.1,6.3-1.7,6.2-6.5c-0.2-31.7-0.3-63.3,0.1-95c0.1-6.9,1.2-14,3.1-20.6c4.5-15.8,16.6-23.1,35.2-22 c13.4,0.8,22.1,9.2,24.9,24.8c1.1,6.2,1.8,12.5,1.8,18.8c0.2,31.5,0.2,63,0,94.5c0,4.3,0.8,6.1,5.7,6c16.7-0.3,33.3-0.1,50-0.1 c1.6,0,3.2-0.2,5-0.3c0.1-1.9,0.3-3.4,0.3-4.8c0-35.2,0.3-70.3-0.1-105.5c-0.1-11.7-1.2-23.6-3.2-35.2 c-2.9-17.3-10.2-32.8-25.9-42c-21.8-12.8-45.2-13.4-68.9-5.6C290.9,196.1,281.3,204.6,273.1,216.6z M178.4,288.8 c0-30.5-0.1-61,0.1-91.5c0-4.4-1.3-5.8-5.7-5.7c-16.8,0.2-33.7,0.2-50.5,0c-3.9,0-5.6,1-5.6,5.3c0.1,61.2,0.1,122.3,0,183.5 c0,4,1.4,5.1,5.3,5c17-0.2,34-0.2,51,0c4.5,0.1,5.6-1.4,5.6-5.7C178.3,349.5,178.4,319.2,178.4,288.8z M112.5,132.1 c0.1,19.7,15.5,35.4,35.1,35.2c19.3-0.2,35.2-14.7,35.5-35.7c0.2-19.7-16-34.8-35.9-35.1C128.7,96.3,111.2,113,112.5,132.1z"/></g></g></svg>