<svg xmlns="http://www.w3.org/2000/svg" viewBox="0 0 512 512"><path d="M513 255v4c-.4 2.3-.9 4.5-1.2 6.8-2 16-2.6 32.2-6.3 47.8-17.9 76.2-61.9 132.7-130.7 169.7-34.1 18.3-70.7 27.7-109.5 28.6-2.1 0-4.2.8-6.3 1.2h-4c-2.3-.4-4.5-1.2-6.8-1.2-20.8-.3-41.1-3.5-60.9-9.3-69.7-20.7-122-63.1-156.3-127.2C12.6 341 3 304.1 2.2 264.9c0-1.9-.8-3.9-1.2-5.8v-4c.4-2.3.9-4.5 1.2-6.8 2-16 2.6-32.2 6.3-47.8C26.3 124.4 70.2 68 138.8 31c34.4-18.5 71.3-28 110.4-28.8 1.9 0 3.8-.8 5.8-1.2h4c1.9.4 3.8 1.1 5.8 1.2 16.7.2 33.2 2.3 49.4 6.2 75.1 18.3 131.2 61.4 168.2 129.1 19 34.7 28.7 72.1 29.5 111.8 0 1.9.7 3.8 1.1 5.7zM340.3 412.5c.3-4.9.7-9 .7-13.1.1-32 0-64 0-96 0-6.2-.1-12.3 0-18.5 0-3.5-1.4-5.2-5.1-5.1-3.8.1-7.7 0-11.5 0-6.8 0-6.9.1-6.9 7.1 0 32.5-.1 65 .1 97.5 0 4.1-1.2 5.5-5.4 5.5-50.8-.1-101.7-.1-152.5 0-4.5 0-5.6-1.6-5.6-5.8.2-18.7.1-37.3.1-56 0-14.3-.1-28.7 0-43 0-3.9-1.5-5.5-5.3-5.3-3.7.2-7.3 0-11 0-7.1 0-7.3.2-7.3 7.4v118.5c0 6.8 0 6.8 6.9 6.8h202.8zm-106.2-42.2c19.5 0 39-.1 58.5.1 4 0 5.8-1.3 5.7-5.5-.2-6.3-.1-12.7-.1-19 0-3.1-1.3-4.5-4.5-4.4-7 .1-14 0-21 0h-96.5c-3.7 0-6 .5-5.7 5.1.4 5.8.4 11.7 0 17.5-.3 4.8 1.3 6.4 6.2 6.3 19.1-.2 38.3-.1 57.4-.1zm117.2-148.2c-1.1-1.7-1.8-3-2.7-4.3-9.3-13.6-18.6-27.2-27.9-40.9-12.7-18.6-25.4-37.1-37.9-55.8-2.2-3.2-3.9-3.8-7.1-1.4-5.1 3.8-10.3 7.4-15.7 10.7-3.1 1.9-3.1 3.8-1.1 6.4 2.2 2.9 4.2 6 6.2 9 20 29.3 40 58.6 59.9 88 2.4 3.6 4.3 4.2 7.9 1.5 4.9-3.8 10.1-7 15.2-10.5 1.1-.6 2.1-1.7 3.2-2.7zM324.8 242c-36.9-21.8-73.1-43.1-109.8-64.8-4.2 7.1-7.8 13.6-11.8 19.8-2.2 3.4-1.9 5.3 1.8 7.4 18.2 10.5 36.2 21.3 54.2 31.9 15.6 9.2 31.3 18.4 46.9 27.6 1.9 1.1 4 3 5.9-.2 4.1-7 8.2-14 12.8-21.7zm-16 31.9c-1-.8-2.2-2.2-3.7-2.6-38.3-10.4-76.7-20.6-115-31.1-3.3-.9-4.6.2-5.3 3.1-1.5 5.8-2.7 11.7-4.7 17.3-1.7 4.9 0 6.6 4.7 7.8 15.9 4 31.8 8.5 47.7 12.7 21.5 5.8 43 11.6 64.5 17.2 1.6.4 4.8-.3 5.1-1.2 2.5-7.2 4.3-14.6 6.7-23.2zm-7.4 37.9c.9-3.9-1.6-4.8-5.1-5.1-10.7-.9-21.5-2-32.2-3-28.4-2.6-56.8-5.2-85.3-7.9-3-.3-4.2.7-4.4 3.7-.2 4.5-.7 8.9-1.4 13.4-1.6 9.9-1.3 10.3 8.2 11.7.2 0 .3.1.5.1 16.5 1.6 33 3.1 49.6 4.7l38.1 3.6c8.4.8 16.9 1.6 25.3 2.3 2.2.2 4.4.3 4.7-3 .6-6.7 1.3-13.4 2-20.5zm81.2-97c-.3-2.2-.3-3-.5-3.8-3.6-20.9-7.2-41.9-10.9-62.8-3-17.3-6-34.7-9-52-.5-2.8-1.3-5.1-5.1-4.4-6.4 1.2-12.7 2.5-19.1 3.4-3.8.6-4.8 2-4 6 3.1 16.3 5.7 32.7 8.6 49.1 3.9 22.4 7.9 44.8 11.8 67.2.5 2.7 1.1 4.4 4.4 3.7 6.8-1.3 13.8-2.3 20.6-3.8 1.4-.4 2.5-2 3.2-2.6z"/></svg>