<svg xmlns="http://www.w3.org/2000/svg" x="0px" y="0px" viewBox="-482.9 365.1 39.9 38.8"> <path d="M-465.2,365.2c-9.2,1-16.6,8.4-17.6,17.4c-1,9.4,4.4,17.8,12.6,21c0.6,0.2,1.2-0.2,1.2-1v-3.2c0,0-0.8,0.2-1.8,0.2 c-2.8,0-4-2.4-4.2-3.8c-0.2-0.8-0.6-1.4-1.2-2c-0.6-0.2-0.8-0.2-0.8-0.4c0-0.4,0.6-0.4,0.8-0.4c1.2,0,2.2,1.4,2.6,2 c1,1.6,2.2,2,2.8,2c0.8,0,1.4-0.2,1.8-0.4c0.2-1.4,0.8-2.8,2-3.6c-4.6-1-8-3.6-8-8c0-2.2,1-4.4,2.4-6c-0.2-0.4-0.4-1.4-0.4-2.8 c0-0.8,0-2,0.6-3.2c0,0,2.8,0,5.6,2.6c1-0.4,2.4-0.6,3.8-0.6c1.4,0,2.8,0.2,4,0.6c2.6-2.6,5.6-2.6,5.6-2.6c0.4,1.2,0.4,2.4,0.4,3.2 c0,1.6-0.2,2.4-0.4,2.8c1.4,1.6,2.4,3.6,2.4,6c0,4.4-3.4,7-8,8c1.2,1,2,2.8,2,4.6v5.2c0,0.6,0.6,1.2,1.4,1c7.4-3,12.6-10.2,12.6-18.6C-443,373.2-453.2,363.8-465.2,365.2z"/></svg>